ply
format ascii 1.0
element vertex 237
property float x
property float y
property float z
property uchar red
property uchar green
property uchar blue
end_header
-0.0344868 0.095022 0.0655829 224 241 235
0.0165308 -0.0254426 -0.0191707 243 255 235
0.0195237 0.290568 0.225065 240 255 255
0.0137876 0.0389583 -0.0681391 114 132 152
0.00989238 0.061436 -0.0754523 219 235 225
0.134638 0.37543 0.168589 205 216 234
-0.0140149 0.0765318 0.0478532 89 100 104
-0.0139825 0.076512 0.0478465 89 100 104
0.0491028 0.163584 0.0227588 61 54 62
0.0334937 0.284791 0.234279 158 171 190
0.00506777 -0.0094009 -0.0539107 206 218 240
-0.0116242 0.114173 0.054163 133 164 84
0.049756 0.163583 0.0228789 66 57 62
0.0837611 0.29031 0.222114 156 186 136
-0.0104492 0.0952303 -0.0133223 141 179 94
-0.00788212 0.111095 0.0684999 111 141 71
-0.00383088 0.0910689 0.0742065 95 129 68
-0.0131608 0.0461155 -0.0729834 126 145 149
0.0411226 0.258044 0.205344 236 250 253
0.0380202 0.204345 0.137948 232 238 234
-0.0230987 -0.0791086 -0.0998197 173 167 171
0.0682944 0.297936 0.231305 141 136 140
0.00102217 0.00214745 0.00377388 240 239 253
0.00102217 0.00214745 0.00377388 240 239 253
0.00117174 0.00217719 0.00379475 222 228 244
0.00117174 0.00217719 0.00379475 222 228 244
0.00130265 0.00220386 0.00381303 230 234 246
0.00130265 0.00220386 0.00381303 230 234 246
-0.0206951 -0.0310637 -0.0604572 195 196 201
0.142725 0.27831 0.197114 106 96 95
-0.0169184 -0.0108624 -0.0555079 132 122 120
-0.0217102 -0.0181962 -0.0583243 142 132 130
0.0713534 0.318778 0.128206 184 184 184
0.0928167 0.410985 0.148466 80 71 62
0.0937085 0.422191 0.145971 81 73 62
0.0033665 0.0038262 0.00404834 112 134 158
0.203763 0.33562 0.202089 2 5 10
0.0293879 0.04755 0.0300214 183 211 235
0.0656223 0.114654 0.0713206 195 185 175
0.0769386 0.129682 0.0771032 199 191 180
-0.127481 -0.126616 -0.117708 38 51 68
0.0387639 0.0939978 0.0169004 75 79 90
0.294715 0.448061 0.202066 208 185 141
0.271165 0.567524 0.189375 160 140 103
0.30492 0.488373 0.177752 187 160 117
0.325914 0.429499 0.185661 188 165 123
0.381967 0.46358 0.190034 188 164 126
0.377895 0.38428 0.183333 186 159 114
0.39721 0.450795 0.190485 240 215 174
0.450119 0.388523 0.181612 236 212 168
0.466785 0.433516 0.183848 245 222 180
0.400594 0.539063 0.15632 179 156 124
0.469778 0.515737 0.176459 174 148 111
0.520696 0.432107 0.177265 182 157 117
0.489128 0.464688 0.165879 177 154 120
0.509786 0.497046 0.173515 179 154 113
0.514391 0.485359 0.174497 180 151 111
0.411747 0.320345 0.136135 221 202 172
0.495736 0.440555 0.167064 234 207 164
0.542274 0.437657 0.173769 175 152 110
0.589702 0.394548 0.17772 192 169 127
0.541173 0.401316 0.170651 193 162 115
0.547504 0.441668 0.175725 183 156 111
0.55901 0.393808 0.168535 242 214 167
0.516674 0.481565 0.155004 177 152 111
1.54792 0.323002 0.0835279 189 162 119
-0.524281 0.812748 0.211222 231 207 169
1.73563 0.374486 0.264199 233 230 223
0.932634 0.379599 0.132291 116 111 107
1.45972 0.307921 0.219109 211 207 206
1.18298 0.408225 0.109768 163 135 96
1.66172 0.391596 0.300589 214 219 213
1.66722 0.391493 0.300263 54 58 61
1.76548 0.437744 0.326081 67 67 77
1.94228 0.455621 0.345065 78 81 88
0.949945 0.278672 0.141229 139 155 189
2.93176 0.563688 0.445799 249 255 255
2.52388 0.508451 0.383369 100 109 126
2.1075 0.359161 0.169538 11 16 19
2.18686 0.309358 0.0324588 224 204 169
2.01928 0.349713 0.15749 11 17 17
1.52915 0.358194 0.258329 206 205 201
2.15636 0.402953 0.237864 33 31 42
2.39463 0.357645 0.266724 7 8 12
1.91798 0.413732 0.279845 185 183 188
1.7747 0.355431 0.215976 105 101 100
0.59046 0.309565 0.157642 93 84 77
0.541843 0.165906 0.0567702 34 43 60
2.64147 0.304843 0.154737 36 92 67
2.17005 0.371001 0.229433 24 18 20
0.949945 0.278672 0.141229 97 87 77
1.52848 0.277028 0.147222 51 77 114
2.19887 0.421101 0.267635 13 7 7
1.73775 0.399034 0.269208 100 108 121
2.16938 0.437872 0.26922 13 11 16
0.949945 0.278672 0.141229 77 71 71
0.949945 0.278672 0.141229 114 45 48
0.949945 0.278672 0.141229 111 98 82
1.40715 0.281689 0.161295 0 3 12
2.18816 0.426432 0.261513 60 56 53
1.01334 0.279805 0.146403 100 100 102
1.42907 0.347474 0.246604 47 50 55
0.949945 0.278672 0.141229 73 65 62
0.949945 0.278672 0.141229 74 67 61
0.589721 0.145737 0.0752001 234 228 228
0.589721 0.145737 0.0752001 234 228 228
1.09745 0.262261 0.175598 78 78 76
1.66824 0.439603 0.268777 68 68 66
1.67912 0.434072 0.261724 205 208 201
1.27049 0.300419 0.193266 204 205 199
0.957 0.268669 0.138074 19 17 18
4.08102 0.408136 0.0233302 147 131 105
1.75138 0.402163 0.23567 150 145 141
2.96868 0.180613 0.08476 198 180 144
2.63984 0.23926 0.101422 188 166 127
1.93595 0.41668 0.282403 121 117 108
2.2035 0.482761 0.492537 161 149 123
2.61697 0.538594 0.515693 164 136 99
2.606 0.520062 0.532146 175 156 124
3.01639 0.627329 0.445114 150 150 150
3.03236 0.626951 0.442924 145 145 145
3.03236 0.626951 0.442924 145 145 145
3.02275 0.622447 0.448296 150 154 157
3.01676 0.615837 0.46339 66 65 71
3.53821 0.693016 0.432587 164 164 166
1.55309 0.357072 0.291794 163 164 168
2.57876 0.498393 0.55952 134 125 118
2.99334 0.593408 0.484137 75 70 74
3.59757 0.638548 0.528805 37 34 27
3.01742 0.597374 0.457906 37 56 86
-16.7605 -1.52274 1.03786 70 69 77
3.14707 0.641142 0.40004 30 36 58
1.90332 0.405901 0.281659 134 150 175
2.92128 0.558142 0.490505 144 141 136
2.96255 0.589393 0.438572 44 43 48
3.27142 0.622982 0.432928 18 21 28
2.95689 0.58682 0.440852 186 184 187
3.11962 0.594879 0.459797 34 31 38
2.94202 0.567092 0.474982 171 170 175
2.95919 0.57351 0.468762 167 168 173
2.97497 0.576133 0.468475 168 169 174
2.57948 0.347453 0.393781 143 129 103
2.50075 0.445879 0.54442 65 73 75
2.52288 0.45128 0.559875 65 73 75
1.57401 0.497131 0.389115 163 144 112
2.10552 0.481266 0.392487 42 38 26
1.90897 0.425326 0.32384 202 215 234
1.85798 0.420198 0.280913 191 185 163
1.85832 0.420246 0.280988 181 175 163
1.85918 0.420368 0.281175 183 170 151
1.85945 0.420401 0.281244 179 167 145
1.91733 0.449068 0.266262 66 89 131
1.86114 0.420598 0.28172 185 174 152
1.96144 0.425312 0.347296 167 154 137
1.96128 0.425306 0.347252 173 160 143
1.86261 0.420749 0.28219 183 174 157
1.95514 0.414436 0.315404 199 214 235
3.4338 0.594359 0.887825 229 209 174
3.09639 0.673394 0.399847 130 129 124
3.43905 0.617084 0.823963 159 149 140
3.09339 0.557435 0.587538 141 133 122
2.97844 0.627491 0.436243 217 199 163
3.37255 0.581862 0.618021 233 242 255
3.36673 0.598629 0.622393 224 209 186
2.74386 0.548782 0.48105 213 226 243
3.38928 0.630809 0.600446 224 196 149
3.39711 0.661571 0.574628 132 119 103
3.39957 0.662571 0.572517 126 119 113
3.39685 0.640467 0.5889 221 194 149
2.61248 0.558805 0.425379 219 192 147
2.61309 0.558799 0.425555 221 194 149
3.58921 0.622952 0.597952 181 148 97
3.44354 0.661095 0.54762 214 186 146
2.66224 0.562497 0.432197 214 186 146
3.44285 0.663677 0.54509 198 174 130
3.56451 0.672329 0.563922 220 193 150
2.91782 0.539327 0.527271 214 187 144
2.26604 0.540684 0.433217 170 143 90
3.10587 0.607391 0.514718 221 197 149
2.87894 0.588063 0.46306 176 158 134
2.75698 0.575974 0.430368 205 182 141
3.4786 0.662285 0.530573 214 183 136
2.60218 0.555269 0.436451 174 147 100
2.88999 0.55952 0.523153 159 137 96
2.88999 0.55952 0.523153 181 158 108
2.88999 0.55952 0.523153 177 150 103
3.38726 0.618343 0.535827 222 198 150
2.88999 0.55952 0.523153 183 157 108
3.418 0.62229 0.525284 215 188 141
1.5488 0.455474 0.444355 218 190 140
1.45191 0.441592 0.454084 173 145 97
3.67326 0.682285 0.490341 214 190 142
2.11455 0.460672 0.511847 211 183 133
0.989809 0.375356 0.491627 215 189 140
0.963242 0.37159 0.493842 220 194 145
0.89981 0.362471 0.499227 214 188 139
3.54285 0.642859 0.501701 211 183 135
0.852086 0.355648 0.50325 220 194 145
0.740315 0.339625 0.512704 216 189 142
0.684994 0.331689 0.517388 219 191 143
2.88999 0.55952 0.523153 172 146 97
2.88999 0.55952 0.523153 169 146 96
2.88999 0.55952 0.523153 169 146 96
3.47009 0.667449 0.468532 212 188 152
3.33211 0.652615 0.464155 196 177 134
3.21862 0.642726 0.423307 167 137 87
3.45163 0.658204 0.475623 18 18 20
3.66957 0.775148 0.343228 172 148 112
3.4219 0.715107 0.415539 138 127 109
3.4219 0.715107 0.415539 138 127 109
3.57395 0.8164 0.295984 49 52 57
3.37712 0.710769 0.410434 13 13 13
3.4426 0.644725 0.472246 180 157 107
3.51325 0.787577 0.312753 169 169 181
3.5159 0.787938 0.310889 148 140 164
3.45216 0.732242 0.374658 74 81 87
3.33962 0.717562 0.393426 59 62 67
3.56738 0.812686 0.278901 47 48 53
2.88999 0.55952 0.523153 166 139 94
2.88999 0.55952 0.523153 166 139 94
3.50194 0.799756 0.294751 61 67 81
3.48256 0.828634 0.26038 19 22 27
3.68213 0.753624 0.322209 92 69 25
3.51762 0.820904 0.262766 77 83 95
3.51762 0.820904 0.262766 77 83 95
3.66693 0.670946 0.429338 148 122 73
3.75672 0.762666 0.305806 94 90 79
3.68712 0.755308 0.31812 80 44 30
3.68712 0.755308 0.31812 80 44 30
3.68007 0.747357 0.326154 20 11 4
3.49457 0.828963 0.247414 10 11 15
3.5297 0.814227 0.254876 55 59 70
3.47684 0.837535 0.226134 6 6 8
3.7008 0.83967 0.22183 30 28 29
3.53933 0.831098 0.230799 107 106 104
3.51383 0.80402 0.251446 115 114 112
3.50588 0.807548 0.247133 113 115 110
